<svg width="320" height="341" viewBox="0 0 320 341" fill="none" xmlns="http://www.w3.org/2000/svg">
  <path d="M185.395 9.6044L185.394 9.60425C177.737 4.95714 168.954 2.5 160 2.5C151.046 2.5 142.263 4.95714 134.606 9.60425L134.605 9.6044L26.1056 75.4673C18.9006 79.8398 12.9434 85.9986 8.80859 93.3488C4.67383 100.699 2.50114 108.992 2.5 117.428V117.429V223.571V223.572C2.50114 232.008 4.67384 240.301 8.80859 247.651C12.9434 255.001 18.9006 261.16 26.1056 265.533L134.605 331.396L134.606 331.396C142.263 336.043 151.046 338.5 160 338.5C168.954 338.5 177.737 336.043 185.394 331.396L185.395 331.396L293.894 265.533C301.099 261.16 307.057 255.001 311.191 247.651C315.326 240.301 317.499 232.008 317.5 223.572V117.429C317.499 108.992 315.326 100.699 311.191 93.3488C307.057 85.9986 301.099 79.8398 293.894 75.4673L185.395 9.6044Z" fill="#9DD9F7" stroke="#9DD9F7" stroke-width="5"/>

  <!-- Text: Date and Conference Title -->
  <text x="50%" y="50%" text-anchor="middle" font-size="30" fill="white">28th Nov 2025</text>
  <text x="50%" y="60%" text-anchor="middle" font-size="20" fill="white">Conference</text>
</svg>
  
